<svg xmlns="http://www.w3.org/2000/svg" id="Camada_1" viewBox="0 0 186.93 48"><defs><style>      .cls-1 {        fill: #134390;      }      .cls-2 {        fill: #164193;      }      .cls-3 {        fill: #008ad1;      }    </style></defs><path class="cls-2" d="M16.71,1.23l-.4,2.33c-.04.2-.19.35-.39.35h-.04c-.75-.05-2.86-.24-4.2-.24-.52,0-1.06.16-1.06.78,0,.27.19.43.82.8l2.28,1.34c1.34.78,1.87,1.81,1.87,3.1,0,3.48-2.94,4.88-6.11,4.88-1.53,0-2.73-.2-3.68-.48-.16-.05-.32-.15-.32-.32v-.05l.39-2.29c.04-.2.2-.37.43-.37h.04c.77.08,2.75.28,3.73.28.75,0,1.37-.27,1.37-1.1,0-.28-.19-.48-.73-.84l-2.4-1.58c-1.09-.71-1.61-1.91-1.61-3.06C6.69,1.42,9.32.4,12.28.4c1.48,0,3.42.24,4.15.47.15.05.28.13.28.3v.05Z"></path><path class="cls-2" d="M21.25,3.59c.2,0,.39.05.34.39l-1.77,10.02c-.04.2-.13.4-.48.4h-2.78c-.2,0-.39-.08-.34-.4l1.77-10.02c.04-.2.16-.39.48-.39,0,0,2.78,0,2.78,0ZM21.97,0C22.18,0,22.37.05,22.32.37l-.32,1.82c-.04.2-.11.37-.48.37h-2.95c-.35,0-.39-.16-.35-.37l.32-1.82c.04-.2.16-.37.51-.37h2.95-.01Z"></path><path class="cls-2" d="M30.45,6.26c-.04.23-.13.4-.43.37-.54-.08-2.32-.3-3.15-.3-.38,0-.77.04-.77.35,0,.24.11.35.67.68l1.18.68c1.58.95,1.96,1.86,1.96,2.85,0,2.72-2.28,3.66-4.87,3.66-1.33,0-2.67-.2-3.48-.44-.24-.08-.32-.2-.28-.4l.34-1.91c.04-.28.15-.44.52-.39,1.09.15,2.56.3,3.18.3.44,0,.97-.08.97-.63,0-.2-.09-.32-.44-.52l-1.52-.9c-1.38-.82-1.87-1.67-1.87-2.77,0-2.77,2.26-3.48,4.66-3.48,1.44,0,2.56.23,3.4.47.23.08.34.15.3.4l-.35,1.97h-.01Z"></path><path class="cls-2" d="M38.45,3.59c.3,0,.43.08.38.37l-.34,1.9c-.04.2-.11.37-.43.37h-1.42l-.9,5c-.04.16-.05.3-.05.39,0,.24.11.32.44.32h.86c.2,0,.38.08.34.35l-.3,1.75c-.04.2-.15.32-.47.37-.15.01-1.01.16-1.7.16-1.62,0-2.78-.62-2.78-2.42,0-.3.04-.62.09-.96l.87-4.96-1.19-.28c-.2-.05-.38-.11-.32-.4l.28-1.56c.04-.2.09-.39.47-.39h1.23l.27-1.51c.04-.2.24-.35.47-.39l2.86-.48c.27-.04.39.09.35.35l-.35,2.02s1.34,0,1.34,0Z"></path><path class="cls-2" d="M48.44,8.48l-.19,1.11c-.04.24-.24.4-.47.4h-5.81c-.04.23-.05.4-.05.58,0,.92.59,1.06,1.53,1.06.99,0,2.87-.08,3.58-.15h.08c.16,0,.28.08.28.24v.08l-.3,1.67c-.05.3-.15.43-.47.52-1.25.39-2.52.58-4.09.58-2.07,0-4.12-1.28-4.12-3.92,0-.3.01-.62.08-.95l.2-1.23c.62-3.68,2.75-5.06,5.87-5.06,2.71,0,3.97,1.78,3.97,4,0,.35-.04.71-.09,1.06ZM44.03,6.19c-1.05,0-1.49.78-1.72,1.85h2.76c.05-.27.09-.52.09-.75,0-.65-.3-1.1-1.14-1.1h.01Z"></path><path class="cls-2" d="M64.57,8.15l-1.02,5.86c-.04.2-.24.4-.47.4h-2.8c-.2,0-.32-.16-.32-.33v-.08l1.13-6.34c.04-.2.05-.37.05-.54,0-.39-.15-.63-.78-.63-.28,0-.73.05-1.18.2-.01.33-.05.61-.11.96l-1.13,6.34c-.04.2-.23.4-.44.4h-2.82c-.2,0-.32-.16-.32-.33v-.08l1.13-6.34c.04-.19.08-.39.08-.56,0-.35-.13-.62-.67-.62-.35,0-.84.15-1.25.33l-1.27,7.17c-.04.2-.23.4-.44.4h-2.82c-.2,0-.34-.16-.34-.35v-.05l1.8-10.05c.04-.2.23-.37.43-.37h2.52c.2,0,.32.13.32.32v.05l-.05.51c.84-.87,1.77-1.04,2.76-1.04.9,0,1.68.4,2.13.99,1.09-.76,1.76-.99,2.76-.99,2.19,0,3.37,1.43,3.37,3.05,0,.56-.11,1.14-.2,1.67v.03Z"></path><path class="cls-2" d="M76.22,4.48l-1.68,9.55c-.04.2-.19.37-.39.37h-2.34c-.2,0-.34-.13-.34-.32v-.05l.08-.58c-.99.76-1.83,1.11-2.87,1.11-1.81,0-3.25-1.3-3.25-3.63,0-.33.05-.76.11-1.08l.32-1.87c.59-3.56,2.86-4.58,5.72-4.58,1.33,0,2.76.2,4.09.47.35.08.58.13.58.44,0,.04,0,.09-.01.15h0ZM71.16,6.38c-1.05,0-1.52.4-1.77,1.9l-.35,1.99c-.04.16-.04.33-.04.47,0,.67.34.86.86.86.56,0,1.23-.28,1.61-.51l.82-4.63c-.32-.04-.75-.08-1.13-.08Z"></path><path class="cls-1" d="M37.33,22.43l-4.19,23.95c-.14.7-.84,1.29-1.53,1.29h-4.33c-.63,0-1.01-.28-1.29-.95l-5.16-11.7c-.1-.24-.22-.28-.32-.28s-.18.08-.22.32l-2.1,11.91c-.08.38-.46.7-.84.7h-5.24c-.35,0-.59-.24-.59-.59v-.1l4.19-23.95c.14-.7.84-1.29,1.53-1.29h4.26c.66,0,.95.42,1.23,1.01l5.3,12.04c.1.24.14.32.24.32s.22-.04.24-.32l2.16-12.36c.08-.38.46-.7.84-.7h5.24c.35,0,.56.24.56.56v.14h.01Z"></path><path class="cls-1" d="M60.51,32.77l-.66,3.85c-1.39,8-5.76,11.39-13.37,11.39-3.31,0-6.15-.28-7.89-.59-.59-.1-.91-.35-.91-.95,0-.14,0-.24.04-.42l4.01-22.7c.18-.95.59-1.23,1.37-1.37,1.85-.32,4.74-.59,8.1-.59,5.87,0,9.56,3.04,9.56,8.73,0,.84-.08,1.71-.24,2.66ZM50.1,27.45c-.46,0-1.75.04-1.99.04l-2.54,14.42c.24.04,1.53.04,1.99.04,2.8,0,4.4-1.11,5.14-5.34l.66-3.85c.14-.84.22-1.57.22-2.16,0-2.52-1.23-3.14-3.45-3.14h-.01Z"></path><path class="cls-1" d="M87.26,22.43l-2.68,15.4c-1.43,8.17-5.48,10.16-12.36,10.16-4.01,0-8.93-2.34-8.93-8.31,0-.7.08-1.39.22-2.2l2.66-15.04c.08-.38.49-.7.87-.7h5.66c.35,0,.56.24.56.56v.14l-2.69,15.4c-.1.63-.18,1.19-.18,1.67,0,1.89.91,2.52,2.9,2.52,2.48,0,3.67-1.01,4.23-4.19l2.68-15.4c.08-.38.46-.7.84-.7h5.66c.35,0,.59.24.59.59,0,0,0,.1,0,.1ZM84.56,15.35l-5.14,4.19c-.32.24-.42.38-.91.38h-4.5c-.18,0-.28-.08-.28-.22,0-.1.08-.24.22-.38l3.87-3.99c.38-.38.52-.52,1.05-.52h5.52c.22,0,.38.08.38.22,0,.1-.08.22-.22.32h.01Z"></path><path class="cls-1" d="M108.45,22.92l-.77,4.36c-.08.38-.35.66-.73.66h-.08c-1.39-.1-5.34-.46-7.86-.46-.97,0-1.99.32-1.99,1.47,0,.49.35.8,1.53,1.51l4.26,2.52c2.52,1.47,3.49,3.39,3.49,5.83,0,6.53-5.48,9.19-11.41,9.19-2.86,0-5.1-.38-6.88-.91-.32-.1-.59-.28-.59-.59v-.1l.73-4.29c.08-.38.38-.7.8-.7h.08c1.43.14,5.14.52,6.98.52,1.39,0,2.54-.49,2.54-2.06,0-.52-.35-.91-1.37-1.57l-4.5-2.97c-2.02-1.33-3-3.59-3-5.76,0-6.29,4.92-8.17,10.48-8.17,2.76,0,6.39.46,7.76.87.28.1.52.24.52.56v.1h.01Z"></path><path class="cls-1" d="M130.54,22.39l-.8,4.47c-.08.38-.46.66-.84.66h-5.2l-3.42,19.45c-.08.38-.46.7-.84.7h-5.69c-.35,0-.56-.24-.56-.56v-.14l3.42-19.45h-5.3c-.35,0-.59-.22-.59-.56v-.1l.81-4.47c.08-.38.42-.66.8-.66h17.6c.35,0,.63.24.63.56v.1h-.03Z"></path><path class="cls-1" d="M147.09,37.27l3.39,9.5c.04.08.04.18.04.24,0,.38-.28.66-.7.66h-6.15c-.38,0-.46-.35-.56-.7l-2.94-8.51c-.77,0-1.51,0-2.26-.08l-1.51,8.59c-.08.38-.46.7-.84.7h-5.66c-.35,0-.59-.24-.59-.59v-.1l4.01-22.84c.28-1.67.87-2.06,2.4-2.3,1.43-.22,4.23-.46,7.34-.46,5.55,0,9.74,1.99,9.74,6.81,0,4.01-1.82,7.54-5.73,9.08h0ZM142.56,27.35c-.95,0-2.13.04-2.72.08l-.97,5.55c.38.04.81.04,1.23.04h1.33c2.76,0,4.26-1.05,4.26-3.81,0-1.29-.91-1.85-3.11-1.85h-.01Z"></path><path class="cls-1" d="M186.23,47.67h-5.93c-.35,0-.59-.32-.59-.66l-.1-4.86h-6.21l-1.85,4.86c-.14.35-.46.66-.8.66h-6.17c-.32,0-.49-.18-.49-.46,0-.08.04-.18.08-.28l8.45-21.37c1.37-3.45,4.12-4.15,7.44-4.15s5.83.7,5.97,4.15l.91,21.37v.04c0,.38-.28.7-.66.7h-.04ZM179.42,27.71c0-.32,0-.49-.32-.49s-.35.18-.46.49l-3.28,8.87h4.19l-.14-8.87Z"></path><path class="cls-3" d="M11.41,22.06c.06-.46-.2-.66-.59-.66h-5.71c-.38,0-.73.28-.8.66l-1.09,6.15,7.73-3.61.44-2.54h.01Z"></path><path class="cls-2" d="M2.74,31.46L.01,46.92c-.06.34.14.7.56.7h5.71c.52,0,.76-.32.84-.7l3.38-19.08-7.73,3.61h-.01Z"></path><path class="cls-3" d="M165.54,22.09c.08-.46-.22-.66-.59-.66h-5.71c-.38,0-.73.28-.8.66l-1.09,6.15,7.74-3.61.46-2.54h-.01Z"></path><path class="cls-2" d="M156.87,31.49l-2.75,15.49c-.08.34.14.7.56.7h5.71c.52,0,.77-.32.84-.7l3.38-19.1-7.74,3.61h.01Z"></path></svg>